<svg viewBox="0 0 34 30" fill="none" xmlns="http://www.w3.org/2000/svg" xmlns:xlink="http://www.w3.org/1999/xlink" x="0" y="0"><path id="Hello,-my-name's-Jac_2" d="M11.0956,14.03c1.3209,0.65 2.3512,1.62 3.0909,2.91c0.7397,1.3 1.1095,2.82 1.1095,4.59c0,2.53 -0.7132,4.59 -2.1398,6.18c-1.4266,1.53 -3.2494,2.29 -5.4686,2.29c-2.2191,0 -4.0683,-0.79 -5.5477,-2.38c-1.4266,-1.59 -2.1399,-3.62 -2.1399,-6.09c0,-1.18 0.1321,-2.35 0.3963,-3.53c0.2642,-1.18 0.8453,-2.94 1.7436,-5.29l4.5967,-12.71h7.8462zM29.7995,14.03c1.3209,0.65 2.3512,1.62 3.0909,2.91c0.7397,1.3 1.1096,2.82 1.1096,4.59c0,2.53 -0.7133,4.59 -2.1399,6.18c-1.4265,1.53 -3.2494,2.29 -5.4685,2.29c-2.2191,0 -4.0684,-0.79 -5.5478,-2.38c-1.4266,-1.59 -2.1398,-3.62 -2.1398,-6.09c0,-1.18 0.1321,-2.35 0.3962,-3.53c0.2642,-1.18 0.8454,-2.94 1.7436,-5.29l4.5968,-12.71h7.8461z" fill="currentColor"/></svg>