<svg viewBox="0 0 67 67" fill="none" xmlns="http://www.w3.org/2000/svg" xmlns:xlink="http://www.w3.org/1999/xlink" x="0" y="0"><g id="university-building-svgrepo-com(1) 2">
<path id="Vector_75" d="M61.058,57.759h-59.737c-0.729,0 -1.321,-0.588 -1.321,-1.314c0,-0.725 0.592,-1.313 1.321,-1.313h59.737c0.73,0 1.321,0.588 1.321,1.313c0,0.726 -0.591,1.314 -1.321,1.314zM58.634,51.772c-0.729,0 -1.321,-0.588 -1.321,-1.313v-29.024h-8.9c-0.73,0 -1.322,-0.588 -1.322,-1.314c0,-0.725 0.592,-1.313 1.322,-1.313h10.222c0.729,0 1.321,0.588 1.321,1.313c0,0.01 0,0.02 0,0.029v30.309c0,0.725 -0.592,1.313 -1.322,1.313zM3.745,51.772c-0.73,0 -1.321,-0.588 -1.321,-1.313v-30.299c-0.001,-0.013 -0.001,-0.026 -0.001,-0.039c0,-0.725 0.592,-1.313 1.322,-1.313h10.222c0.73,0 1.322,0.588 1.322,1.313c0,0.726 -0.592,1.314 -1.322,1.314h-8.9v29.024c0,0.725 -0.592,1.313 -1.322,1.313zM53.032,39.49c-0.73,0 -1.322,-0.588 -1.322,-1.314v-2.553c0,-0.726 0.592,-1.314 1.322,-1.314c0.729,0 1.321,0.588 1.321,1.314v2.553c0,0.726 -0.592,1.314 -1.321,1.314zM9.35,39.49c-0.73,0 -1.321,-0.588 -1.321,-1.314v-2.553c0,-0.726 0.591,-1.314 1.321,-1.314c0.73,0 1.321,0.588 1.321,1.314v2.553c0,0.726 -0.591,1.314 -1.321,1.314zM53.032,31.48c-0.73,0 -1.322,-0.588 -1.322,-1.313v-2.554c0,-0.725 0.592,-1.313 1.322,-1.313c0.729,0 1.321,0.588 1.321,1.313v2.554c0,0.725 -0.592,1.313 -1.321,1.313zM9.35,31.48c-0.73,0 -1.321,-0.588 -1.321,-1.313v-2.554c0,-0.725 0.591,-1.313 1.321,-1.313c0.73,0 1.321,0.588 1.321,1.313v2.554c0,0.725 -0.591,1.313 -1.321,1.313zM47.17,31.48h-31.961c-0.73,0 -1.321,-0.588 -1.321,-1.314c0,-0.725 0.591,-1.313 1.321,-1.313h31.962c0.729,0 1.321,0.588 1.321,1.313c0,0.726 -0.592,1.314 -1.322,1.314zM47.17,27.004c-0.197,0 -0.397,-0.044 -0.586,-0.137l-15.537,-7.651l-15.243,7.647c-0.651,0.326 -1.446,0.067 -1.775,-0.581c-0.329,-0.648 -0.067,-1.438 0.584,-1.765l15.255,-7.652v-9.776c0,-0.725 0.592,-1.313 1.322,-1.313h9.552c0.73,0 1.322,0.588 1.322,1.313v4.962c0,0.726 -0.592,1.314 -1.322,1.314h-8.231v3.64l15.246,7.508c0.654,0.322 0.922,1.11 0.598,1.76c-0.231,0.463 -0.699,0.731 -1.185,0.731zM32.511,10.738h6.91v-2.335h-6.91z" fill="#757575"/>
<g id="Vector_76">
<path d="M45.849,50.459c0,0.725 0.591,1.313 1.321,1.313c0.73,0 1.322,-0.588 1.322,-1.313v-14.836c0,-0.726 -0.592,-1.314 -1.322,-1.314c-0.73,0 -1.321,0.588 -1.321,1.314z" fill="#BA1A1A"/>
<path d="M35.195,50.459c0,0.725 0.592,1.313 1.321,1.313c0.73,0 1.322,-0.588 1.322,-1.313v-14.836c0,-0.726 -0.592,-1.314 -1.322,-1.314c-0.729,0 -1.321,0.588 -1.321,1.314z" fill="#BA1A1A"/>
<path d="M24.541,50.459c0,0.725 0.592,1.313 1.322,1.313c0.729,0 1.321,-0.588 1.321,-1.313v-14.836c0,-0.726 -0.592,-1.314 -1.321,-1.314c-0.73,0 -1.322,0.588 -1.322,1.314z" fill="#BA1A1A"/>
<path d="M13.887,50.459c0,0.725 0.592,1.313 1.322,1.313c0.73,0 1.321,-0.588 1.321,-1.313v-14.836c0,-0.726 -0.591,-1.314 -1.321,-1.314c-0.73,0 -1.322,0.588 -1.322,1.314z" fill="#BA1A1A"/>
</g>
</g></svg>