<svg viewBox="0 0 65 65" fill="none" xmlns="http://www.w3.org/2000/svg" xmlns:xlink="http://www.w3.org/1999/xlink" x="0" y="0"><g id="calendar-check-svgrepo-com 1">
<path id="Vector_73" d="M59.92,12.19h-11.17v-7.11h-4.06v7.11h-24.38v-7.11h-4.06v7.11h-11.17c-0.81,0 -1.58,0.32 -2.16,0.89c-0.57,0.57 -0.89,1.35 -0.89,2.15v42.66c0,0.81 0.32,1.58 0.89,2.15c0.58,0.58 1.35,0.9 2.16,0.9h54.84c0.81,0 1.58,-0.32 2.16,-0.9c0.57,-0.57 0.89,-1.34 0.89,-2.15v-42.66c0,-0.8 -0.32,-1.58 -0.89,-2.15c-0.58,-0.57 -1.35,-0.89 -2.16,-0.89zM58.91,56.88h-52.82v-40.63h10.16v5.08h4.06v-5.08h24.38v5.08h4.06v-5.08h10.16z" fill="#757575"/>
<path id="Vector_74" d="M30.9,39.78l-6.9,-6.9l-2.88,2.87l9.78,9.78l15.95,-15.95l-2.88,-2.87z" fill="#C40E0E"/>
</g></svg>