<svg viewBox="0 0 56 54.1305" fill="none" xmlns="http://www.w3.org/2000/svg" xmlns:xlink="http://www.w3.org/1999/xlink" x="0" y="0"><g id="Vector_102">
<path d="M10.524,54.1354c-0.721,0 -1.304,-0.61 -1.304,-1.36v-4.97h-1.96c-0.72,0 -1.304,-0.6 -1.304,-1.35c0,-0.75 0.584,-1.35 1.304,-1.35h3.235c0.019,0 0.038,0 0.058,0h42.58c0.721,0 1.305,0.6 1.305,1.35c0,0.75 -0.584,1.35 -1.305,1.35h-41.305v4.97c0,0.75 -0.584,1.36 -1.304,1.36zM1.304,47.8054c-0.163,0 -0.329,-0.03 -0.49,-0.1c-0.667,-0.28 -0.989,-1.07 -0.718,-1.76l3.545,-9.05c1.565,-3.99 4.372,-9.3 10.642,-9.3h4.701c3.378,0 6.159,1.55 8.266,4.62c0.056,0.08 0.618,0.84 1.113,1.5c0.357,0.48 0.741,1 1.06,1.43c0.439,0.59 0.332,1.44 -0.239,1.89c-0.571,0.46 -1.39,0.35 -1.829,-0.24c-0.319,-0.43 -0.701,-0.95 -1.058,-1.43c-0.954,-1.28 -1.13,-1.52 -1.176,-1.58c-1.017,-1.49 -2.157,-2.48 -3.491,-3.01l-3.943,5.6c-0.246,0.34 -0.637,0.55 -1.053,0.55c-0.417,0 -0.808,-0.21 -1.054,-0.55l-3.943,-5.6c-2.287,0.92 -4.033,3.19 -5.58,7.14l-3.544,9.05c-0.206,0.52 -0.694,0.84 -1.209,0.84zM14.527,30.2954l2.107,2.99l2.106,-2.99zM54.696,31.3054c-0.515,0 -1.003,-0.32 -1.209,-0.84l-2.931,-7.48c-1.214,-3.103 -2.573,-4.925 -4.327,-5.707l-3.154,4.476c-0.246,0.351 -0.637,0.551 -1.054,0.551c-0.416,0 -0.808,-0.2 -1.053,-0.551l-3.155,-4.477c-0.995,0.44 -1.855,1.21 -2.627,2.336c-0.08,0.115 -2.182,3.022 -2.851,3.922c-0.439,0.59 -1.257,0.7 -1.829,0.25c-0.571,-0.45 -0.678,-1.3 -0.239,-1.894c0.667,-0.898 2.693,-3.702 2.799,-3.853c1.78,-2.594 4.141,-3.914 7.012,-3.914h3.887c5.32,0 7.689,4.475 9.009,7.841l2.93,7.48c0.271,0.69 -0.051,1.48 -0.718,1.76c-0.161,0.07 -0.327,0.1 -0.49,0.1zM40.724,16.8254l1.297,1.841l1.298,-1.841zM16.634,25.1954c-3.909,0 -7.089,-3.295 -7.089,-7.344c0,-3.333 2.156,-6.155 5.1,-7.048c0.015,-0.005 0.031,-0.01 0.046,-0.014c0.355,-0.105 0.718,-0.18 1.084,-0.226c0.229,-0.029 0.461,-0.046 0.696,-0.052c0.003,-0.002 0.005,0 0.008,0c0.002,-0.001 0.005,0 0.007,-0.001c0.002,0 0.004,0 0.006,0c0,0 0.004,0 0.006,0c0.042,-0.001 0.085,-0.002 0.126,-0.001c0.002,0 0.005,0 0.008,0h0.002h0.005c0.003,0 0.007,0 0.01,0h0.006h0.006h0.005h0.007c0.002,0 0.004,0 0.006,0c3.609,0.024 6.598,2.809 6.999,6.514c0.03,0.271 0.045,0.548 0.045,0.828c-0.001,4.049 -3.181,7.344 -7.089,7.344zM14.136,14.0004c-1.195,0.834 -1.983,2.249 -1.983,3.851c0,2.559 2.01,4.644 4.481,4.644c2.146,0 3.944,-1.574 4.38,-3.665c-0.07,0.003 -0.14,0.004 -0.211,0.004c-3.058,0 -5.677,-1.984 -6.667,-4.834zM16.637,13.2114c0.659,1.727 2.276,2.918 4.158,2.921c-0.655,-1.697 -2.252,-2.902 -4.117,-2.921c-0.002,0 -0.005,0 -0.007,0c0,0 -0.004,0 -0.006,0c0,0 -0.004,0 -0.007,0c-0.002,0 -0.004,0 -0.006,0c-0.002,0 -0.004,0 -0.006,0c-0.003,0 -0.006,0 -0.009,0zM42.021,12.6094c-3.356,0 -6.087,-2.828 -6.087,-6.305c0,-3.476 2.731,-6.304 6.087,-6.304c3.357,0 6.088,2.828 6.088,6.304c0,3.477 -2.731,6.305 -6.088,6.305zM42.021,2.7014c-1.918,0 -3.478,1.617 -3.478,3.603c0,1.987 1.56,3.603 3.478,3.603c1.919,0 3.479,-1.616 3.479,-3.603c0,-1.986 -1.56,-3.603 -3.479,-3.603z" fill="#757575"/>
<path d="M28.88,28.5654h19.622c0.72,0 1.304,-0.6 1.304,-1.35c0,-0.75 -0.584,-1.35 -1.304,-1.35h-19.622c-0.72,0 -1.304,0.6 -1.304,1.35c0,0.75 0.584,1.35 1.304,1.35z" fill="#B30101"/>
<path d="M22.443,42.5354h14.336c0.72,0 1.304,-0.6 1.304,-1.35c0,-0.74 -0.584,-1.35 -1.304,-1.35h-14.336c-0.72,0 -1.304,0.61 -1.304,1.35c0,0.75 0.584,1.35 1.304,1.35z" fill="#B20101"/>
</g></svg>