<svg viewBox="0 0 52.973 53.22" fill="none" xmlns="http://www.w3.org/2000/svg" xmlns:xlink="http://www.w3.org/1999/xlink" id="9f9ae6e2" x="0" y="0"><g id="TopRank1" data-node-id="174:12" clip-path="url(#clip0_174_12)"><path id="Vector_93" data-node-id="174:296" d="M44.517,12.272c0.773,0 1.4,-0.627 1.4,-1.4c0,-0.773 -0.627,-1.4 -1.4,-1.4h-0.432c-0.773,0 -1.4,0.627 -1.4,1.4c0,0.773 0.627,1.4 1.4,1.4z" fill="#C40000"/><g id="badge-certificate-education-svgrepo-com 1" data-node-id="174:297">
<g id="Group_21" data-node-id="174:298">
<path id="Vector_94" data-node-id="174:299" d="M52.472,11.292c0,-5.951 -4.841,-10.792 -10.792,-10.792h-22.949c-0.773,0 -1.4,0.627 -1.4,1.4c0,0.773 0.627,1.4 1.4,1.4h22.949c4.407,0 7.993,3.585 7.993,7.992v31.138c0,2.13 -0.832,4.14 -2.341,5.65c-1.51,1.51 -3.517,2.34 -5.652,2.34h-20.996c-4.407,0 -7.992,-3.59 -7.992,-7.99v-31.138c0,-5.951 -4.841,-10.792 -10.792,-10.792c-0.773,0 -1.4,0.627 -1.4,1.4c0,0.773 0.627,1.4 1.4,1.4c4.407,0 7.992,3.585 7.992,7.992v31.138c0,5.95 4.841,10.79 10.792,10.79h20.996v0c2.883,0 5.593,-1.12 7.632,-3.16c2.038,-2.04 3.161,-4.75 3.161,-7.63z" fill="#757575"/>
<path id="Vector_95" data-node-id="174:300" d="M14.004,3.3h0.469c0.773,0 1.4,-0.627 1.4,-1.4c0,-0.773 -0.627,-1.4 -1.4,-1.4h-0.469c-0.773,0 -1.4,0.627 -1.4,1.4c0,0.773 0.627,1.4 1.4,1.4z" fill="#757575"/>
<path id="Vector_96" data-node-id="174:301" d="M25.237,44.02c0.144,0.49 0.544,0.86 1.044,0.97l2.126,0.47l0.467,2.12c0.11,0.5 0.483,0.9 0.974,1.05c0.13,0.04 0.262,0.05 0.393,0.05c0.366,0 0.724,-0.14 0.99,-0.41l5.659,-5.65c0.083,0 0.166,0 0.25,0c0.084,0 0.167,0 0.25,0l5.658,5.65c0.266,0.27 0.624,0.41 0.99,0.41c0.131,0 0.264,-0.01 0.393,-0.05c0.491,-0.15 0.865,-0.55 0.974,-1.05l0.468,-2.12l2.126,-0.47c0.5,-0.11 0.9,-0.48 1.043,-0.97c0.144,-0.49 0.008,-1.02 -0.354,-1.39l-5.658,-5.65c0.003,-0.09 0.006,-0.17 0.006,-0.25c0,-3.26 -2.645,-5.9 -5.896,-5.9c-3.252,0 -5.897,2.64 -5.897,5.9c0,0.08 0.003,0.16 0.007,0.25l-5.659,5.65c-0.362,0.37 -0.497,0.9 -0.354,1.39zM44.9,42.81l-0.503,0.11c-0.533,0.11 -0.949,0.53 -1.067,1.06l-0.11,0.51l-2.839,-2.84c0.667,-0.44 1.24,-1.02 1.681,-1.68zM37.14,33.63c1.707,0 3.096,1.39 3.096,3.1c0,1.7 -1.389,3.09 -3.096,3.09c-1.708,0 -3.097,-1.39 -3.097,-3.09c0,-1.71 1.389,-3.1 3.097,-3.1zM32.218,39.97c0.441,0.66 1.013,1.24 1.68,1.68l-2.838,2.84l-0.111,-0.51c-0.117,-0.53 -0.533,-0.95 -1.067,-1.06l-0.503,-0.11z" fill="#757575"/>
</g>
</g><path id="Vector_97" data-node-id="174:302" d="M17.953,12.272h21.84c0.773,0 1.4,-0.627 1.4,-1.4c0,-0.773 -0.627,-1.4 -1.4,-1.4h-21.84c-0.773,0 -1.4,0.627 -1.4,1.4c0,0.773 0.627,1.4 1.4,1.4z" fill="#C40000"/><path id="Vector_98" data-node-id="174:303" d="M17.953,20.252h0.431c0.774,0 1.4,-0.627 1.4,-1.4c0,-0.773 -0.626,-1.4 -1.4,-1.4h-0.431c-0.773,0 -1.4,0.627 -1.4,1.4c0,0.773 0.627,1.4 1.4,1.4z" fill="#757575"/><path id="Vector_99" data-node-id="174:304" d="M21.276,18.852c0,0.773 0.627,1.4 1.4,1.4h21.84c0.774,0 1.4,-0.627 1.4,-1.4c0,-0.773 -0.626,-1.4 -1.4,-1.4h-21.84c-0.773,0 -1.4,0.627 -1.4,1.4z" fill="#757575"/><path id="Vector_100" data-node-id="174:305" d="M44.085,28.23h0.432c0.773,0 1.4,-0.63 1.4,-1.4c0,-0.77 -0.627,-1.4 -1.4,-1.4h-0.432c-0.773,0 -1.4,0.63 -1.4,1.4c0,0.77 0.627,1.4 1.4,1.4z" fill="#C40000"/><path id="Vector_101" data-node-id="174:306" d="M17.953,28.23h21.84c0.773,0 1.4,-0.63 1.4,-1.4c0,-0.77 -0.627,-1.4 -1.4,-1.4h-21.84c-0.773,0 -1.4,0.63 -1.4,1.4c0,0.77 0.627,1.4 1.4,1.4z" fill="#C40000"/></g><defs><clipPath id="clip0_174_12">
<rect width="1440" height="3640" fill="white" x="-263.514" y="-979.14"/>
</clipPath></defs></svg>