<svg viewBox="0 0 43.2756 59" fill="none" xmlns="http://www.w3.org/2000/svg" xmlns:xlink="http://www.w3.org/1999/xlink" x="0" y="0"><g id="Group_35">
<path id="Vector_109" d="M30.7707,10.95h-23.01c-1.477,0 -2.677,1.2 -2.677,2.67v2.92c0,1.48 1.201,2.68 2.677,2.68h23.01c1.476,0 2.677,-1.2 2.677,-2.68v-2.92c0,-1.47 -1.201,-2.67 -2.677,-2.67zM31.2237,16.54c0,0.25 -0.204,0.45 -0.453,0.45h-23.01c-0.25,0 -0.454,-0.2 -0.454,-0.45v-2.92c0,-0.25 0.204,-0.45 0.454,-0.45h23.01c0.249,0 0.453,0.2 0.453,0.45z" fill="#757575"/>
<path id="Vector_110" d="M19.2657,22.7c-7.337,0 -13.305,5.97 -13.305,13.3c0,7.34 5.968,13.31 13.305,13.31c7.336,0 13.304,-5.97 13.304,-13.31c0,-7.33 -5.968,-13.3 -13.304,-13.3zM14.4967,26c-0.54,0.82 -1.13,1.82 -1.667,2.97h-2.121c1.025,-1.25 2.317,-2.26 3.788,-2.97zM8.2407,34.89c0.131,-1.31 0.492,-2.56 1.043,-3.7h2.665c-0.018,0.06 -0.037,0.12 -0.055,0.17c-0.336,1.06 -0.609,2.25 -0.737,3.53M9.2837,40.81c-0.551,-1.14 -0.911,-2.38 -1.043,-3.7h2.852c0.049,1.19 0.238,2.42 0.617,3.7zM10.7087,43.03h1.85c0.438,0.94 0.989,1.89 1.67,2.84c-1.359,-0.7 -2.558,-1.67 -3.52,-2.84zM18.1537,47.03c-0.029,-0.01 -0.058,-0.01 -0.086,-0.01c-0.044,-0.08 -0.095,-0.15 -0.157,-0.21c-1.178,-1.22 -2.131,-2.48 -2.859,-3.78h3.102zM18.1537,40.81h-4.117c-0.427,-1.2 -0.67,-2.44 -0.73,-3.7h4.847zM18.1537,34.89h-4.766c0.109,-0.91 0.309,-1.84 0.603,-2.78c0.098,-0.31 0.205,-0.62 0.316,-0.92h3.847zM18.1537,28.97h-2.837c1.23,-2.31 2.575,-3.75 2.602,-3.78c0.058,-0.06 0.107,-0.13 0.149,-0.2c0.029,-0.01 0.057,-0.01 0.086,-0.01v3.99zM27.8227,28.97h-2.121c-0.537,-1.15 -1.128,-2.15 -1.668,-2.97c1.471,0.71 2.763,1.72 3.789,2.97zM20.3777,24.98c0.028,0 0.057,0 0.085,0.01c0.042,0.07 0.091,0.14 0.15,0.2c0.019,0.02 1.368,1.46 2.604,3.78h-2.839zM20.3777,31.19h3.846c0.103,0.28 0.202,0.56 0.294,0.85c0.307,0.96 0.514,1.91 0.626,2.85h-4.766zM20.3777,37.11h4.847c-0.06,1.26 -0.304,2.5 -0.731,3.7h-4.116zM20.6197,46.81c-0.062,0.06 -0.113,0.13 -0.156,0.21c-0.029,0 -0.057,0 -0.086,0.01v-4h3.101c-0.728,1.3 -1.68,2.56 -2.859,3.78zM25.9717,43.03h1.851c-0.963,1.17 -2.162,2.14 -3.521,2.84M29.2477,40.81h-2.427c0.38,-1.28 0.568,-2.51 0.618,-3.7h2.852c-0.132,1.32 -0.493,2.56 -1.043,3.7zM30.2897,34.89h-2.916c-0.128,-1.28 -0.401,-2.47 -0.737,-3.53c-0.018,-0.05 -0.037,-0.11 -0.056,-0.17h2.667c0.55,1.14 0.911,2.39 1.042,3.7z" fill="#CD0404"/>
<g id="Group_36">
<path id="Vector_111" d="M41.0217,6.22c0.001,0.04 0.001,0.08 0.002,0.12c-0.001,-0.04 -0.001,-0.08 -0.002,-0.12z" fill="#757575"/>
<path id="Vector_112" d="M41.0357,8.04c0,0.08 0.001,0.16 0.001,0.24c0,-0.08 -0.001,-0.16 -0.001,-0.24z" fill="#757575"/>
<path id="Vector_113" d="M41.0427,9.98c0,0.04 0,0.09 0,0.13c0,-0.04 0,-0.09 0,-0.13z" fill="#757575"/>
<path id="Vector_114" d="M41.0417,9.53c0,0.07 0,0.13 0,0.2c0,-0.07 0,-0.13 0,-0.2z" fill="#757575"/>
<path id="Vector_115" d="M41.0287,6.87c0,0.07 0.001,0.14 0.001,0.22c0,-0.08 -0.001,-0.15 -0.001,-0.22z" fill="#757575"/>
<path id="Vector_116" d="M41.0437,10.4c0,0.06 0,0.12 0.001,0.18c-0.001,-0.06 -0.001,-0.12 -0.001,-0.18z" fill="#757575"/>
<path id="Vector_117" d="M43.2437,6.01c-0.032,-2.19 -0.722,-3.83 -2.052,-4.87c-2.034,-1.59 -4.805,-1.09 -5.243,-0.99l-33.394,4.85c-1.419,0.06 -2.555,1.23 -2.555,2.67v48.65c0,1.48 1.202,2.68 2.678,2.68h33.175c1.477,0 2.678,-1.2 2.678,-2.68v-0.6h1.915c0.002,0 0.005,0 0.007,0c0.216,0 1.086,-0.05 1.83,-0.78c0.639,-0.63 0.963,-1.54 0.963,-2.7c0,-1.89 0.005,-5.53 0.01,-9.97c0.016,-12.98 0.04,-32.59 -0.012,-36.26zM36.3067,56.32c0,0.25 -0.203,0.46 -0.453,0.46h-33.176c-0.25,0 -0.454,-0.21 -0.454,-0.46v-48.65c0,-0.25 0.204,-0.46 0.454,-0.46h33.176c0.25,0 0.453,0.21 0.453,0.46zM41.0217,52.24c0,0.76 -0.214,1.22 -0.588,1.25h-1.903v-45.82c0,-1.48 -1.201,-2.68 -2.677,-2.68h-5.747h-12.033l18.233,-2.65c0.029,0 0.062,-0.01 0.09,-0.01c0.021,-0.01 2.115,-0.47 3.434,0.57c0.768,0.61 1.168,1.66 1.189,3.15c0.001,0.05 0.002,0.11 0.002,0.17c0.001,0.04 0.001,0.08 0.002,0.12c0,0.02 0,0.05 0.001,0.08c0,0.04 0.001,0.09 0.001,0.14c0,0.03 0.001,0.05 0.001,0.08c0,0.05 0.001,0.11 0.001,0.17c0,0 0,0.01 0,0.02c0.001,0.01 0.001,0.03 0.001,0.04c0,0.07 0.001,0.14 0.002,0.22c0,0.01 0,0.03 0,0.05c0,0.06 0.001,0.13 0.001,0.19c0.001,0.03 0.001,0.06 0.001,0.09c0,0.07 0.001,0.15 0.001,0.22c0,0.03 0,0.05 0.001,0.08c0,0.07 0,0.15 0.001,0.22c0,0.03 0,0.07 0,0.1c0.001,0.08 0.001,0.16 0.002,0.24c0,0.03 0,0.06 0,0.1c0,0.07 0.001,0.15 0.001,0.23c0,0.05 0,0.09 0.001,0.14c0,0.07 0,0.14 0,0.22c0,0.05 0.001,0.1 0.001,0.16c0,0.07 0,0.13 0.001,0.21c0,0.06 0,0.12 0,0.19c0,0.07 0.001,0.13 0.001,0.2c0,0.08 0,0.17 0.001,0.25c0,0.04 0,0.09 0,0.13c0,0.1 0.001,0.19 0.001,0.29c0,0.06 0,0.12 0,0.18c0,0.08 0.001,0.16 0.001,0.25c0,0.06 0,0.12 0,0.18c0.001,0.13 0.001,0.25 0.001,0.38c0,0.01 0,0.03 0,0.04c0.014,7.66 -0.002,21.12 -0.014,30.84c-0.006,4.44 -0.011,8.07 -0.011,9.97z" fill="#757575"/>
</g>
</g></svg>