<svg viewBox="0 0 59 59" fill="none" xmlns="http://www.w3.org/2000/svg" xmlns:xlink="http://www.w3.org/1999/xlink" x="0" y="0"><defs><clipPath id="clip5_174_12">
<rect width="59" height="59" fill="white" transform="translate(0, 0)"/>
</clipPath></defs><g id="loss-svgrepo-com(1) 1" clip-path="url(#clip5_174_12)">
<g id="Group_22">
<g id="Group_23">
<path id="Vector_103" d="M35.991,28.24h-12.982c-0.649,0 -1.175,0.53 -1.175,1.18v28.4c0,0.65 0.526,1.18 1.175,1.18h12.982c0.649,0 1.175,-0.53 1.175,-1.18v-28.4c0,-0.65 -0.526,-1.18 -1.175,-1.18zM34.816,56.65h-10.632v-26.05h10.632z" fill="#C40202"/>
</g>
</g>
<g id="Group_24">
<g id="Group_25">
<path id="Vector_104" d="M17.517,11.49h-12.982c-0.649,0 -1.175,0.53 -1.175,1.18v45.15c0,0.65 0.526,1.18 1.175,1.18h12.982c0.649,0 1.175,-0.53 1.175,-1.18v-45.15c0,-0.65 -0.526,-1.18 -1.175,-1.18zM5.71,56.65v-42.81h10.631v42.81z" fill="#757575"/>
</g>
</g>
<g id="Group_26">
<g id="Group_27">
<path id="Vector_105" d="M54.465,46.22h-12.982c-0.649,0 -1.175,0.53 -1.175,1.18v10.42c0,0.65 0.526,1.18 1.175,1.18h12.982c0.649,0 1.175,-0.53 1.175,-1.18v-10.42c0,-0.65 -0.526,-1.18 -1.175,-1.18zM53.289,56.65h-10.631v-8.08h10.631z" fill="#757575"/>
</g>
</g>
<g id="Group_28">
<g id="Group_29">
<path id="Vector_106" d="M49.851,26.96c-0.649,0 -1.175,0.53 -1.175,1.18v3.9l-32.624,-31.71c-0.465,-0.45 -1.209,-0.44 -1.662,0.03c-0.452,0.46 -0.442,1.21 0.024,1.66l32.514,31.6h-3.734c-0.649,0 -1.176,0.53 -1.176,1.17c0,0.65 0.527,1.18 1.176,1.18h6.657c0.649,0 1.175,-0.53 1.175,-1.18v-6.65c0,-0.65 -0.526,-1.18 -1.175,-1.18z" fill="#757575"/>
</g>
</g>
<g id="Group_30">
<g id="Group_31">
<path id="Vector_107" d="M8.11,40.9c-0.65,0 -1.176,0.53 -1.176,1.18v11.98c0,0.65 0.526,1.18 1.176,1.18c0.649,0 1.175,-0.53 1.175,-1.18v-11.98c0,-0.65 -0.526,-1.18 -1.175,-1.18z" fill="#757575"/>
</g>
</g>
<g id="Group_32">
<g id="Group_33">
<path id="Vector_108" d="M8.11,36.43c-0.65,0 -1.176,0.53 -1.176,1.18v0.59c0,0.65 0.526,1.17 1.176,1.17c0.649,0 1.175,-0.52 1.175,-1.17v-0.59c0,-0.65 -0.526,-1.18 -1.175,-1.18z" fill="#757575"/>
</g>
</g>
</g></svg>