<svg viewBox="0 0 48.8175 52.876" fill="none" xmlns="http://www.w3.org/2000/svg" xmlns:xlink="http://www.w3.org/1999/xlink" id="6bb13466" x="0" y="0"><g id="TopRank1" data-node-id="174:12" clip-path="url(#clip0_174_12)"><g id="document-edit-svgrepo-com 2" data-node-id="174:283" clip-path="url(#clip3_174_12)">
<g id="Page-1" data-node-id="174:284">
<g id="Document-edit" data-node-id="174:285">
<path id="Shape_1_" data-node-id="174:286" d="M39.44,37.813v12.187c0,0.894 -0.73,1.626 -1.62,1.626h-34.94c-0.9,0 -1.63,-0.732 -1.63,-1.626v-47.124c0,-0.894 0.73,-1.626 1.63,-1.626h21.04l15.52,14.707v12.106" stroke="#757575" stroke-width="2.5"/>
<path id="Shape" data-node-id="174:287" d="M39.44,16.607h-13.81c-0.9,0 -1.63,-0.731 -1.63,-1.625v-12.919" stroke="#757575" stroke-width="2.5"/>
<path id="Shape_2_" data-node-id="174:288" d="M5.41,15.063h10.56" stroke="#BE0505" stroke-width="2.5"/>
<path id="Shape_5_" data-node-id="174:289" d="M5.41,35.188h19.5" stroke="#757575" stroke-width="2.5"/>
<path id="Shape_6_" data-node-id="174:290" d="M5.41,41.063h13.81" stroke="#BE0505" stroke-width="2.5"/>
<g id="Group_20" data-node-id="174:291">
<path id="Shape_8_" data-node-id="174:292" d="M23.19,49.188l3.17,-7.637l16.49,-16.494c0.33,-0.325 0.9,-0.325 1.3,0l3.17,3.168c0.33,0.325 0.33,0.894 0,1.301l-16.49,16.493z" stroke="#757575" stroke-width="2.5" stroke-linejoin="round"/>
<path id="Shape_9_" data-node-id="174:293" d="M40.98,27.007l4.39,4.387" stroke="#757575" stroke-width="2.5"/>
</g>
</g>
</g>
</g><path id="Shape_3_" data-node-id="174:294" d="M5.41,22.188h25.19" stroke="#757575" stroke-width="2.5"/><path id="Shape_4_" data-node-id="174:295" d="M5.41,28.876h25.19" stroke="#BE0505" stroke-width="2.5"/></g><defs><clipPath id="clip0_174_12">
<rect width="1440" height="3640" fill="white" x="-1112.59" y="-779.562"/>
</clipPath><clipPath id="clip3_174_12">
<rect width="52" height="52" fill="white" transform="translate(-1.5899999999999181, 0.4379999999999882)"/>
</clipPath></defs></svg>