<svg viewBox="0 0 53 53" fill="none" xmlns="http://www.w3.org/2000/svg" xmlns:xlink="http://www.w3.org/1999/xlink" x="0" y="0"><g id="Group_19">
<path id="Vector_86" d="M10.6,42.4h-1.767c-4.877,0 -8.833,-3.96 -8.833,-8.83c0,-4.88 3.956,-8.84 8.833,-8.84h1.767z" stroke="#757575" stroke-width="2.5" stroke-miterlimit="10" stroke-linejoin="round"/>
<path id="Vector_87" d="M44.167,42.4h-1.767v-17.67h1.767c4.877,0 8.833,3.96 8.833,8.84c0,4.87 -3.956,8.83 -8.833,8.83z" stroke="#757575" stroke-width="2.5" stroke-miterlimit="10" stroke-linejoin="round"/>
<path id="Vector_88" d="M7.067,24.73v-5.3c0,-10.73 8.7,-19.43 19.433,-19.43c10.732,0 19.433,8.7 19.433,19.43v5.3" stroke="#757575" stroke-width="2.5" stroke-miterlimit="10" stroke-linejoin="round"/>
<path id="Vector_89" d="M45.933,42.4v7.07c0,1.95 -1.581,3.53 -3.533,3.53h-5.3" stroke="#757575" stroke-width="2.5" stroke-miterlimit="10" stroke-linejoin="round"/>
<path id="Vector_90" d="M30.034,53h3.533" stroke="#757575" stroke-width="2.5" stroke-miterlimit="10" stroke-linejoin="round"/>
<path id="Vector_91" d="M26.5,40.63v3.54" stroke="#D9060C" stroke-width="2.5" stroke-miterlimit="10" stroke-linejoin="round"/>
<path id="Vector_92" d="M26.5,37.1v-4.62c0,-2.55 1.549,-4.83 3.913,-5.78c2.972,-1.19 4.92,-4.07 4.92,-7.27c0,-4.87 -3.955,-8.83 -8.833,-8.83c-4.878,0 -8.833,3.96 -8.833,8.83" stroke="#D9060C" stroke-width="2.5" stroke-miterlimit="10" stroke-linejoin="round"/>
</g></svg>