<svg viewBox="0 0 102 51" fill="none" xmlns="http://www.w3.org/2000/svg" xmlns:xlink="http://www.w3.org/1999/xlink" id="c194887e" x="0" y="0"><g id="TopRank1" data-node-id="174:12" clip-path="url(#clip0_174_12)"><path id="Ellipse 200" data-node-id="174:168" d="M24,0.5c12.951,0 23.5,11.16 23.5,25c0,13.84 -10.549,25 -23.5,25c-12.951,0 -23.5,-11.16 -23.5,-25c0,-13.84 10.549,-25 23.5,-25z" fill="white" stroke="#EEEEEE"/><path id="Ellipse 201" data-node-id="174:169" d="M78,0.5c-12.951,0 -23.5,11.16 -23.5,25c0,13.84 10.549,25 23.5,25c12.951,0 23.5,-11.16 23.5,-25c0,-13.84 -10.549,-25 -23.5,-25z" fill="white" stroke="#E30000"/><g id="Icon 24 / Arrow" data-node-id="174:170">
<path id="Vector_42" data-node-id="I174:170;46:470" d="M30,27h-11" stroke="#727271" stroke-width="1.5" stroke-linecap="square"/>
<path id="Vector_43" data-node-id="I174:170;46:471" d="M24,33.5l-6,-6.5l6,-6.5" stroke="#727271" stroke-width="1.5" stroke-linecap="square"/>
</g><g id="Icon 24 / Arrow_2" data-node-id="174:171">
<path id="Vector_44" data-node-id="I174:171;46:470" d="M72,27h11" stroke="#727271" stroke-width="1.5" stroke-linecap="square"/>
<path id="Vector_45" data-node-id="I174:171;46:471" d="M78,33.5l6,-6.5l-6,-6.5" stroke="#727271" stroke-width="1.5" stroke-linecap="square"/>
</g></g><defs><clipPath id="clip0_174_12">
<rect width="1440" height="3640" fill="white" x="-665" y="-3504"/>
</clipPath></defs></svg>