<svg viewBox="0 0 55.5 53.5" fill="none" xmlns="http://www.w3.org/2000/svg" xmlns:xlink="http://www.w3.org/1999/xlink" id="2b0de323" x="0" y="0"><g id="TopRank1" data-node-id="174:12" clip-path="url(#clip0_174_12)"><path id="Vector_77" data-node-id="174:265" d="M21.125,45.539l-7.95,6.711v-12.079h-8.052c-1.027,0 -2.012,-0.413 -2.739,-1.149c-0.726,-0.736 -1.134,-1.734 -1.134,-2.774v-31.075c0,-1.04 0.408,-2.038 1.134,-2.774c0.727,-0.736 1.712,-1.149 2.739,-1.149h42.604c1.027,0 2.012,0.413 2.738,1.149c0.727,0.736 1.135,1.734 1.135,2.774v11.677M54.25,52.147c-1.281,-1.621 -3.19,-2.977 -5.524,-3.923c-2.334,-0.945 -5.004,-1.445 -7.726,-1.445c-2.722,0 -5.392,0.5 -7.726,1.445c-2.334,0.946 -4.243,2.302 -5.524,3.923M41,44.095c5.854,0 10.6,-4.807 10.6,-10.737c0,-5.93 -4.746,-10.737 -10.6,-10.737c-5.854,0 -10.6,4.807 -10.6,10.737c0,5.93 4.746,10.737 10.6,10.737z" stroke="#757575" stroke-width="2.5" stroke-linecap="round" stroke-linejoin="round"/><path id="Vector_78" data-node-id="174:266" d="M9.25,9.25h29M9.25,16.25h23.182M9.25,22.75h18.182M9.25,29.75h13.182" stroke="#B30101" stroke-width="2.5" stroke-linecap="round" stroke-linejoin="round"/></g><defs><clipPath id="clip0_174_12">
<rect width="1440" height="3640" fill="white" x="-272.75" y="-778.75"/>
</clipPath></defs></svg>