<svg viewBox="0 0 54 54" fill="none" xmlns="http://www.w3.org/2000/svg" xmlns:xlink="http://www.w3.org/1999/xlink" x="0" y="0"><g id="Group_14">
<path id="Vector_46" d="M18.9,23.4h-1.8v1.8h1.8z" fill="#DE0000"/>
<path id="Vector_47" d="M18.9,27h-1.8v1.8h1.8z" fill="#DE0000"/>
<path id="Vector_48" d="M17.1,11.7h1.8c2.52,0 4.5,-1.98 4.5,-4.5v-2.7c0,-2.52 -1.98,-4.5 -4.5,-4.5h-1.8c-2.52,0 -4.5,1.98 -4.5,4.5v2.7c0,2.52 1.98,4.5 4.5,4.5zM14.4,4.5c0,-1.53 1.17,-2.7 2.7,-2.7h1.8c1.53,0 2.7,1.17 2.7,2.7v2.7c0,1.53 -1.17,2.7 -2.7,2.7h-1.8c-1.53,0 -2.7,-1.17 -2.7,-2.7z" fill="#757575"/>
<path id="Vector_49" d="M53.1,30.6h-24.3v-11.7c0,-3.51 -2.79,-6.3 -6.3,-6.3h-9c-3.51,0 -6.3,2.79 -6.3,6.3v11.7h-6.3c-0.54,0 -0.9,0.36 -0.9,0.9v5.4c0,0.54 0.36,0.9 0.9,0.9h2.7v16.2h1.8v-16.2h39.6v-1.8h-40.5h-2.7v-3.6h50.4v3.6h-2.7c-0.54,0 -0.9,0.36 -0.9,0.9v17.1h1.8v-16.2h2.7c0.54,0 0.9,-0.36 0.9,-0.9v-5.4c0,-0.54 -0.36,-0.9 -0.9,-0.9zM19.53,14.4l-1.44,3.78l-1.44,-3.78zM9,18.9c0,-2.52 1.98,-4.5 4.5,-4.5h1.17l2.52,6.66c0.09,0.27 0.45,0.54 0.81,0.54c0.36,0 0.72,-0.27 0.99,-0.54l2.52,-6.66h0.99c2.52,0 4.5,1.98 4.5,4.5v11.7h-2.7v-9h-1.8v9h-9v-9h-1.8v9h-2.7z" fill="#757575"/>
<path id="Vector_50" d="M53.1,2.7h-21.6c-0.54,0 -0.9,0.36 -0.9,0.9v12.6c0,0.54 0.36,0.9 0.9,0.9h4.5v3.6c0,0.36 0.18,0.72 0.54,0.81c0.09,0.09 0.27,0.09 0.36,0.09c0.27,0 0.45,-0.09 0.63,-0.27l4.23,-4.23h11.34c0.54,0 0.9,-0.36 0.9,-0.9v-12.6c0,-0.54 -0.36,-0.9 -0.9,-0.9zM52.2,15.3h-10.8c-0.27,0 -0.45,0.09 -0.63,0.27l-2.97,2.97v-2.34c0,-0.54 -0.36,-0.9 -0.9,-0.9h-4.5v-10.8h19.8z" fill="#757575"/>
<path id="Vector_51" d="M40.5,7.2h-5.4v1.8h5.4z" fill="#757575"/>
<path id="Vector_52" d="M47.7,7.2h-5.4v1.8h5.4z" fill="#757575"/>
<path id="Vector_53" d="M49.5,10.8h-14.4v1.8h14.4z" fill="#DE0000"/>
<path id="Vector_54" d="M31.5,42.3h-9c-0.54,0 -0.9,0.36 -0.9,0.9v5.4c0,0.54 0.36,0.9 0.9,0.9h9c0.54,0 0.9,-0.36 0.9,-0.9v-5.4c0,-0.54 -0.36,-0.9 -0.9,-0.9zM30.6,47.7h-7.2v-3.6h7.2z" fill="#DE0000"/>
<path id="Vector_55" d="M37.8,43.2h-1.8v1.8h1.8z" fill="#757575"/>
<path id="Vector_56" d="M41.4,43.2h-1.8v1.8h1.8z" fill="#757575"/>
<path id="Vector_57" d="M45,43.2h-1.8v1.8h1.8z" fill="#757575"/>
<path id="Vector_58" d="M37.8,46.8h-1.8v1.8h1.8z" fill="#757575"/>
<path id="Vector_59" d="M41.4,46.8h-1.8v1.8h1.8z" fill="#757575"/>
<path id="Vector_60" d="M45,46.8h-1.8v1.8h1.8z" fill="#757575"/>
<path id="Vector_61" d="M10.8,43.2h-1.8v1.8h1.8z" fill="#757575"/>
<path id="Vector_62" d="M14.4,43.2h-1.8v1.8h1.8z" fill="#757575"/>
<path id="Vector_63" d="M18,43.2h-1.8v1.8h1.8z" fill="#757575"/>
<path id="Vector_64" d="M10.8,46.8h-1.8v1.8h1.8z" fill="#757575"/>
<path id="Vector_65" d="M14.4,46.8h-1.8v1.8h1.8z" fill="#757575"/>
<path id="Vector_66" d="M18,46.8h-1.8v1.8h1.8z" fill="#757575"/>
</g></svg>