<svg viewBox="0 0 30.0002 30" fill="none" xmlns="http://www.w3.org/2000/svg" xmlns:xlink="http://www.w3.org/1999/xlink" x="0" y="0"><path id="Vector" fill-rule="evenodd" clip-rule="evenodd" d="M11.332,11.7481c0.417,-0.2782 0.668,-0.7466 0.668,-1.2481v-6c0,-2.4853 -2.015,-4.5 -4.5,-4.5h-6c-0.828,0 -1.5,0.6716 -1.5,1.5c0,14.9117 13.588,28.5 28.5,28.5c0.828,0 1.5,-0.6716 1.5,-1.5v-6c0,-2.4853 -2.015,-4.5 -4.5,-4.5h-6c-0.502,0 -0.97,0.2507 -1.248,0.6679l-2.858,4.2871c-3.113,-2.0128 -5.84,-4.6712 -7.938,-7.7316l-0.411,-0.6173zM20.303,21h5.197c0.828,0 1.5,0.6716 1.5,1.5v4.448c-2.906,-0.2011 -5.742,-0.9783 -8.387,-2.2106l-0.607,-0.2925zM7.5,3c0.828,0 1.5,0.6716 1.5,1.5v5.1972l-3.445,2.2966c-1.402,-2.8161 -2.286,-5.8644 -2.503,-8.9938zM15.041,6.3505l-0.018,-0.0881l-0.02,-0.1737v-0.1773l0.02,-0.1732l0.052,-0.2072l0.048,-0.1261l0.096,-0.1858l0.061,-0.0916l0.045,-0.0598l0.114,-0.1282l4.5,-4.5001l0.142,-0.1248c0.539,-0.4195 1.299,-0.4195 1.839,0l0.141,0.1248l0.125,0.1413c0.419,0.5394 0.419,1.2993 0,1.8387l-0.125,0.1413l-1.938,1.9396l8.377,-0.0002c0.769,0 1.403,0.5791 1.49,1.3251l0.01,0.1749l-0.01,0.175c-0.08,0.6886 -0.626,1.235 -1.315,1.315l-0.175,0.0101l-8.377,0.0001l1.938,1.9393l0.125,0.1413c0.457,0.5885 0.416,1.4393 -0.125,1.9801c-0.541,0.5407 -1.392,0.5823 -1.98,0.1247l-0.142,-0.1247l-4.5,-4.5001l-0.144,-0.168l-0.108,-0.1663l-0.046,-0.0916l-0.066,-0.1666z" fill="currentColor"/></svg>