<svg viewBox="0 0 57.931 56" fill="none" xmlns="http://www.w3.org/2000/svg" xmlns:xlink="http://www.w3.org/1999/xlink" x="0" y="0"><g id="Group_12">
<path id="Vector_25" d="M54.07,9.66h-14.48v-3.87h1.93c0.58,0 0.96,-0.38 0.96,-0.96v-3.86c0,-0.58 -0.38,-0.97 -0.96,-0.97h-25.11c-0.58,0 -0.96,0.39 -0.96,0.97v3.86c0,0.58 0.38,0.96 0.96,0.96h1.93v3.87h-14.48c-2.12,0 -3.86,1.73 -3.86,3.86v14.48c0,0.58 0.39,0.97 0.97,0.97h2.89v26.06c0,0.58 0.39,0.97 0.97,0.97h31.86v-1.93h-30.9v-25.1h13.52v-1.94h-14.48h-2.9v-13.51c0,-1.06 0.87,-1.93 1.93,-1.93h15.45h19.31h15.45c1.06,0 1.93,0.87 1.93,1.93v13.51h-2.9h-14.48v1.94h13.52v1.93h1.93v-1.93h2.9c0.57,0 0.96,-0.39 0.96,-0.97v-14.48c0,-2.13 -1.74,-3.86 -3.86,-3.86zM17.38,1.93h23.17v1.93h-23.17zM20.28,9.66v-3.87h17.38v3.87z" fill="#757575"/>
<path id="Vector_26" d="M35.72,24.14h-13.51c-0.58,0 -0.97,0.38 -0.97,0.96v5.8c0,0.58 0.39,0.96 0.97,0.96h13.51c0.58,0 0.97,-0.38 0.97,-0.96v-5.8c0,-0.58 -0.39,-0.96 -0.97,-0.96zM34.76,29.93h-11.59v-3.86h11.59z" fill="#DA1313"/>
<path id="Vector_27" d="M56.97,32.83h-17.38c-0.58,0 -0.97,0.38 -0.97,0.96v21.24c0,0.58 0.39,0.97 0.97,0.97h17.38c0.57,0 0.96,-0.39 0.96,-0.97v-21.24c0,-0.58 -0.39,-0.96 -0.96,-0.96zM56,34.76v3.86h-15.45v-3.86zM40.55,54.07v-13.52h15.45v13.52z" fill="#757575"/>
<path id="Vector_28" d="M45.38,42.48h-1.93v1.93h1.93z" fill="#DA1313"/>
<path id="Vector_29" d="M49.24,42.48h-1.93v1.93h1.93z" fill="#DA1313"/>
<path id="Vector_30" d="M53.1,42.48h-1.93v1.93h1.93z" fill="#DA1313"/>
<path id="Vector_31" d="M45.38,46.34h-1.93v1.94h1.93z" fill="#DA1313"/>
<path id="Vector_32" d="M49.24,46.34h-1.93v1.94h1.93z" fill="#757575"/>
<path id="Vector_33" d="M53.1,46.34h-1.93v1.94h1.93z" fill="#DA1313"/>
<path id="Vector_34" d="M45.38,50.21h-1.93v1.93h1.93z" fill="#DA1313"/>
<path id="Vector_35" d="M49.24,50.21h-1.93v1.93h1.93z" fill="#DA1313"/>
<path id="Vector_36" d="M53.1,50.21h-1.93v1.93h1.93z" fill="#DA1313"/>
<path id="Vector_37" d="M43.45,35.72h-1.93v1.94h1.93z" fill="#757575"/>
<path id="Vector_38" d="M46.34,35.72h-1.93v1.94h1.93z" fill="#757575"/>
<path id="Vector_39" d="M49.24,35.72h-1.93v1.94h1.93z" fill="#757575"/>
<path id="Vector_40" d="M52.14,35.72h-1.93v1.94h1.93z" fill="#757575"/>
<path id="Vector_41" d="M55.03,35.72h-1.93v1.94h1.93z" fill="#757575"/>
</g></svg>