<svg viewBox="0 0 61 61" fill="none" xmlns="http://www.w3.org/2000/svg" xmlns:xlink="http://www.w3.org/1999/xlink" x="0" y="0"><g id="education-university-svgrepo-com 1">
<g id="Group_2">
<g id="Group_3">
<path id="Vector_20" d="M56.133,26.31c-0.538,0 -0.974,0.44 -0.974,0.98c0,3.75 -3.056,6.81 -6.813,6.81h-1.466c-0.401,-1.13 -1.483,-1.95 -2.752,-1.95c-0.601,0 -1.159,0.19 -1.624,0.5c-0.842,-1.46 -2.416,-2.44 -4.217,-2.44h-35.746c-0.538,0 -0.974,0.43 -0.974,0.97c0,0.54 0.436,0.97 0.974,0.97h35.746c1.269,0 2.351,0.82 2.753,1.95h-38.499c-0.538,0 -0.974,0.44 -0.974,0.97c0,0.54 0.436,0.98 0.974,0.98h38.499c-0.402,1.13 -1.484,1.94 -2.753,1.94h-35.746c-0.538,0 -0.974,0.44 -0.974,0.98c0,0.54 0.436,0.97 0.974,0.97h35.746c1.801,0 3.375,-0.98 4.217,-2.44c0.464,0.31 1.023,0.49 1.624,0.49c1.269,0 2.351,-0.81 2.752,-1.94h1.466c4.83,0 8.76,-3.93 8.76,-8.76c0,-0.54 -0.435,-0.98 -0.973,-0.98zM44.128,36.05c-0.537,0 -0.974,-0.44 -0.974,-0.98c0,-0.53 0.437,-0.97 0.974,-0.97c0.536,0 0.973,0.44 0.973,0.97c0,0.54 -0.437,0.98 -0.973,0.98z" fill="#DA1313"/>
</g>
</g>
<g id="Group_4">
<g id="Group_5">
<path id="Vector_21" d="M24.335,16.9c0.538,0 0.973,-0.43 0.973,-0.97c0,-0.54 -0.435,-0.97 -0.973,-0.97c-0.538,0 -0.973,0.43 -0.973,0.97c0,0.54 0.435,0.97 0.973,0.97z" fill="black"/>
</g>
</g>
<g id="Group_6">
<g id="Group_7">
<path id="Vector_22" d="M20.441,20.8c0.538,0 0.974,-0.44 0.974,-0.98c0,-0.53 -0.436,-0.97 -0.974,-0.97c-0.537,0 -0.973,0.44 -0.973,0.97c0,0.54 0.436,0.98 0.973,0.98z" fill="black"/>
</g>
</g>
<g id="Group_8">
<g id="Group_9">
<path id="Vector_23" d="M60.026,3.6h-2.92v-0.32c0,-0.54 -0.436,-0.98 -0.973,-0.98c-0.538,0 -0.974,0.44 -0.974,0.98v0.32h-54.186c-0.537,0 -0.973,0.44 -0.973,0.97v4.55c0,0.53 0.436,0.97 0.973,0.97h43.479v13.78l-13.952,2.43l-13.952,-2.43v-10.86c0,-0.54 -0.436,-0.97 -0.974,-0.97c-0.537,0 -0.973,0.43 -0.973,0.97v11.68c0,0.47 0.34,0.88 0.807,0.96l14.925,2.6c0.055,0.01 0.111,0.01 0.167,0.01c0.056,0 0.112,0 0.167,-0.01l14.925,-2.6c0.466,-0.08 0.807,-0.49 0.807,-0.96v-14.6h8.76v13.3c0,0.54 0.436,0.98 0.974,0.98c0.537,0 0.973,-0.44 0.973,-0.98v-13.3h2.92c0.538,0 0.974,-0.44 0.974,-0.97v-4.55c0,-0.53 -0.436,-0.97 -0.974,-0.97zM55.159,8.14h-53.212v-2.59h53.212v2.59zM59.053,8.14h-1.947v-2.59h1.947z" fill="#757575"/>
</g>
</g>
<g id="Group_10">
<g id="Group_11">
<path id="Vector_24" d="M56.136,43.19h-39.599c-0.036,0 -0.072,0 -0.107,0c-0.009,0 -0.018,0.01 -0.027,0.01c-0.027,0 -0.053,0 -0.08,0.01c-0.009,0 -0.019,0.01 -0.029,0.01c-0.025,0 -0.05,0.01 -0.074,0.02c-0.01,0 -0.02,0.01 -0.029,0.01c-0.025,0.01 -0.048,0.02 -0.072,0.03c-0.005,0 -0.011,0.01 -0.017,0.01l-15.564,7.78c-0.329,0.17 -0.538,0.5 -0.538,0.87c0,0.37 0.209,0.71 0.538,0.87l15.564,7.78c0.006,0.01 0.012,0.01 0.017,0.01c0.024,0.01 0.047,0.02 0.072,0.03c0.009,0.01 0.019,0.01 0.029,0.01c0.024,0.01 0.049,0.02 0.074,0.02c0.01,0.01 0.02,0.01 0.029,0.01c0.027,0.01 0.053,0.01 0.08,0.02c0.009,0 0.018,0 0.027,0c0.035,0 0.071,0.01 0.107,0.01h39.599c2.682,0 4.864,-2.19 4.864,-4.87v-7.78c0,-2.68 -2.182,-4.86 -4.864,-4.86zM7.782,54.26l-4.632,-2.32l4.632,-2.31zM15.564,58.15l-5.835,-2.92v-6.58l5.835,-2.92zM49.976,58.75h-32.465v-13.62h27.277v5.84h-24.36c-0.538,0 -0.973,0.43 -0.973,0.97c0,0.54 0.435,0.97 0.973,0.97h24.36v2.92c0,0.54 0.436,0.98 0.974,0.98c0.537,0 0.973,-0.44 0.973,-0.98v-10.7h3.241zM59.053,55.83c0,1.61 -1.309,2.92 -2.917,2.92h-4.213v-13.62h4.212c1.609,0 2.918,1.31 2.918,2.92v7.78z" fill="#757575"/>
</g>
</g>
</g></svg>