<svg viewBox="0 0 56 56" fill="none" xmlns="http://www.w3.org/2000/svg" xmlns:xlink="http://www.w3.org/1999/xlink" x="0" y="0"><g id="progrm-icon1">
<path id="Vector_3" d="M46.0305,14.41c0.7732,0 1.4,-0.62 1.4,-1.4c0,-0.77 -0.6268,-1.4 -1.4,-1.4h-0.4315c-0.7732,0 -1.4,0.63 -1.4,1.4c0,0.78 0.6268,1.4 1.4,1.4z" fill="#C40000"/>
<g id="badge-certificate-education-svgrepo-com 2">
<g id="Group">
<path id="Vector_4" d="M53.9864,13.43c0,-5.95 -4.8414,-10.79 -10.7924,-10.79h-22.9485c-0.7733,0 -1.4,0.63 -1.4,1.4c0,0.77 0.6267,1.4 1.4,1.4h22.9486c4.407,0 7.9924,3.59 7.9924,7.99l0.0001,31.14c0,2.13 -0.8314,4.14 -2.341,5.65c-1.5095,1.51 -3.5166,2.34 -5.6514,2.34h-20.9958c-4.4071,0 -7.9924,-3.59 -7.9924,-7.99v-31.14c0,-5.95 -4.8414,-10.79 -10.7923,-10.79c-0.7732,0 -1.4,0.63 -1.4,1.4c0,0.77 0.6268,1.4 1.4,1.4c4.407,0 7.9923,3.59 7.9923,7.99v31.14c0,5.95 4.8415,10.79 10.7924,10.79h20.9958c0.0001,0 0,0 0.0001,0c2.8826,0 5.5929,-1.12 7.6313,-3.16c2.0385,-2.04 3.161,-4.75 3.161,-7.63z" fill="#757575"/>
<path id="Vector_5" d="M15.5182,5.44h0.4691c0.7732,0 1.4,-0.63 1.4,-1.4c0,-0.77 -0.6268,-1.4 -1.4,-1.4h-0.4691c-0.7732,0 -1.4,0.63 -1.4,1.4c0,0.77 0.6268,1.4 1.4,1.4z" fill="#757575"/>
<path id="Vector_6" d="M26.7516,46.16c0.1437,0.49 0.5436,0.86 1.0432,0.97l2.1261,0.47l0.4674,2.12c0.1098,0.5 0.4834,0.9 0.9744,1.05c0.1295,0.04 0.2617,0.05 0.3928,0.05c0.366,0 0.7238,-0.14 0.9901,-0.41l5.6585,-5.65c0.0829,0 0.1661,0 0.2499,0c0.0839,0 0.167,0 0.25,0l5.6583,5.65c0.2664,0.27 0.624,0.41 0.9902,0.41c0.1311,0 0.2633,-0.01 0.3928,-0.05c0.491,-0.15 0.8646,-0.55 0.9744,-1.05l0.4674,-2.12l2.1261,-0.47c0.4996,-0.11 0.8996,-0.48 1.0432,-0.97c0.1435,-0.49 0.0079,-1.02 -0.3539,-1.39l-5.6584,-5.65c0.0035,-0.09 0.0063,-0.17 0.0063,-0.25c0,-3.26 -2.645,-5.9 -5.8964,-5.9c-3.2514,0 -5.8965,2.64 -5.8965,5.9c0,0.08 0.0029,0.16 0.0064,0.25l-5.6584,5.65c-0.3618,0.37 -0.4975,0.9 -0.3539,1.39zM46.4144,44.95l-0.5029,0.11c-0.5332,0.11 -0.9497,0.53 -1.0669,1.06l-0.1105,0.51l-2.8384,-2.84c0.667,-0.44 1.2395,-1.02 1.6803,-1.68zM38.654,35.77c1.7074,0 3.0964,1.39 3.0964,3.1c0,1.7 -1.389,3.09 -3.0964,3.09c-1.7074,0 -3.0965,-1.39 -3.0965,-3.09c0,-1.71 1.3891,-3.1 3.0965,-3.1zM33.732,42.11c0.4409,0.66 1.0133,1.24 1.6804,1.68l-2.8384,2.84l-0.1105,-0.51c-0.1173,-0.53 -0.5337,-0.95 -1.0669,-1.06l-0.5029,-0.11z" fill="#757575"/>
</g>
</g>
<path id="Vector_7" d="M19.4669,14.41h21.8401c0.7733,0 1.4,-0.62 1.4,-1.4c0,-0.77 -0.6267,-1.4 -1.4,-1.4h-21.8401c-0.7732,0 -1.4,0.63 -1.4,1.4c0,0.78 0.6268,1.4 1.4,1.4z" fill="#C40000"/>
<path id="Vector_8" d="M19.4669,22.39h0.4315c0.7733,0 1.4,-0.62 1.4,-1.4c0,-0.77 -0.6267,-1.4 -1.4,-1.4h-0.4315c-0.7732,0 -1.4,0.63 -1.4,1.4c0,0.78 0.6268,1.4 1.4,1.4z" fill="#757575"/>
<path id="Vector_9" d="M22.7903,20.99c0,0.78 0.6268,1.4 1.4,1.4h21.8401c0.7732,0 1.4,-0.62 1.4,-1.4c0,-0.77 -0.6268,-1.4 -1.4,-1.4h-21.8401c-0.7732,0 -1.4,0.63 -1.4,1.4z" fill="#757575"/>
<path id="Vector_10" d="M45.599,30.37h0.4315c0.7732,0 1.4,-0.63 1.4,-1.4c0,-0.77 -0.6268,-1.4 -1.4,-1.4h-0.4315c-0.7732,0 -1.4,0.63 -1.4,1.4c0,0.77 0.6268,1.4 1.4,1.4z" fill="#C40000"/>
<path id="Vector_11" d="M19.4669,30.37h21.8401c0.7733,0 1.4,-0.63 1.4,-1.4c0,-0.77 -0.6267,-1.4 -1.4,-1.4h-21.8401c-0.7732,0 -1.4,0.63 -1.4,1.4c0,0.77 0.6268,1.4 1.4,1.4z" fill="#C40000"/>
</g></svg>