<svg viewBox="0 0 60 56" fill="none" xmlns="http://www.w3.org/2000/svg" xmlns:xlink="http://www.w3.org/1999/xlink" x="0" y="0"><g id="progrm-icon3">
<path id="Vector_18" d="M50.235,8.11l0.503,-3.19c0.201,-1.23 -0.183,-2.48 -1.054,-3.42c-0.879,-0.95 -2.155,-1.5 -3.502,-1.5h-32.66c-1.347,0 -2.623,0.55 -3.5,1.5c-0.872,0.94 -1.256,2.19 -1.054,3.42l0.516,3.28c-2.086,0.57 -4.008,1.6 -5.579,3.07c-2.518,2.35 -3.905,5.47 -3.905,8.8c0,6.87 5.989,12.45 13.35,12.45h1.574c2.336,3.41 5.993,5.92 10.191,7.01v6.83h-0.861c-2.734,0 -4.987,1.88 -5.404,4.32h-1.669c-1.466,0 -2.658,1.11 -2.658,2.48v2.04c0,0.44 0.386,0.8 0.861,0.8h28.939c0.475,0 0.861,-0.36 0.861,-0.8v-2.04c0,-1.37 -1.192,-2.48 -2.658,-2.48h-1.669c-0.417,-2.44 -2.67,-4.32 -5.403,-4.32h-0.862v-6.83c4.2,-1.09 7.859,-3.6 10.191,-7.01h1.867c3.554,0 6.908,-1.29 9.448,-3.64c2.515,-2.37 3.902,-5.49 3.902,-8.81c-0.003,-5.58 -4.065,-10.49 -9.765,-11.96zM1.723,20.07c0,-2.9 1.207,-5.62 3.4,-7.67c1.307,-1.22 2.894,-2.09 4.615,-2.6l2.552,16.2c0.269,1.74 0.829,3.38 1.645,4.92h-0.585c-6.412,-0.01 -11.627,-4.87 -11.627,-10.85zM43.46,53.16v1.23h-27.216v-1.23c0,-0.48 0.42,-0.87 0.935,-0.87h2.444h20.456h2.444c0.517,0 0.937,0.39 0.937,0.87zM39.119,50.68h-18.534c0.391,-1.55 1.887,-2.71 3.669,-2.71h1.722h7.752h1.722c1.781,0 3.278,1.16 3.669,2.71zM26.837,46.36v-6.48c1.001,0.16 2.007,0.27 3.015,0.27c1.006,0 2.014,-0.11 3.014,-0.27v6.48zM33.533,38.15c-2.424,0.52 -4.94,0.52 -7.359,0c-4.189,-0.92 -7.853,-3.42 -10.056,-6.85c-1.102,-1.68 -1.816,-3.54 -2.122,-5.53l-3.325,-21.09c-0.126,-0.77 0.114,-1.55 0.658,-2.14c0.548,-0.59 1.349,-0.93 2.193,-0.93h32.66c0.844,0 1.645,0.34 2.192,0.93c0.545,0.59 0.784,1.37 0.658,2.14v0l-0.606,3.85c0,0 -0.003,0.01 -0.005,0.01c-0.002,0.01 0.002,0.01 0,0.02l-2.715,17.21c-0.306,1.99 -1.021,3.85 -2.125,5.54c-2.198,3.42 -5.862,5.92 -10.048,6.84zM54.877,27.74c-2.21,2.05 -5.133,3.17 -8.23,3.17h-0.879c0.818,-1.53 1.377,-3.17 1.645,-4.9l2.563,-16.27c4.849,1.35 8.298,5.54 8.298,10.33c0,2.89 -1.208,5.62 -3.397,7.67z" fill="#757575"/>
<path id="Vector_19" d="M39.139,14.6h-6.739l-2.082,-6.1c-0.231,-0.67 -1.405,-0.67 -1.636,0l-2.082,6.1h-6.739c-0.373,0 -0.704,0.22 -0.819,0.56c-0.115,0.34 0.011,0.71 0.313,0.91l5.451,3.77l-2.082,6.09c-0.115,0.34 0.01,0.71 0.313,0.91c0.303,0.21 0.708,0.21 1.011,0l5.453,-3.76l5.451,3.76c0.151,0.11 0.329,0.16 0.506,0.16c0.177,0 0.354,-0.05 0.505,-0.16c0.301,-0.21 0.428,-0.58 0.313,-0.91l-2.082,-6.09l5.451,-3.77c0.301,-0.2 0.428,-0.57 0.313,-0.91c-0.115,-0.34 -0.445,-0.56 -0.819,-0.56zM32.677,18.87c-0.301,0.2 -0.428,0.57 -0.313,0.91l1.458,4.26l-3.815,-2.63c-0.152,-0.11 -0.329,-0.16 -0.506,-0.16c-0.177,0 -0.354,0.05 -0.506,0.16l-3.815,2.63l1.458,-4.26c0.115,-0.34 -0.011,-0.71 -0.313,-0.91l-3.816,-2.64h4.717c0.373,0 0.703,-0.23 0.818,-0.56l1.457,-4.27l1.458,4.27c0.115,0.33 0.446,0.56 0.819,0.56h4.717z" fill="#DA1313"/>
</g></svg>